{"title":"Empire state 2013","uid":8845100,"size":583827907,"categoryP":"video","categoryS":"movies","magnet":"?xt=urn:btih:bbed86f98ff1ff9b1ec0571f3b770c16e341afa6&amp;dn=Empire+state+2013&amp;tr=udp%3A%2F%2Ftracker.openbittorrent.com%3A80&amp;tr=udp%3A%2F%2Fopen.demonii.com%3A1337&amp;tr=udp%3A%2F%2Ftracker.coppersurfer.tk%3A6969&amp;tr=udp%3A%2F%2Fexodus.desync.com%3A6969","seeders":0,"leechers":0,"uploader":"facemovies","files":-1,"time":1377359000,"description":"Video\nID                             : 1\nFormat                         : AVC\nFormat/Info                    : Advanced Video Codec\nFormat profile                 : &lt;a class=&quot;__cf_email__&quot; href=&quot;/cdn-cgi/l/email-protection&quot; data-cfemail=&quot;60220113050c090e05202c534e50&quot;&gt;[email&amp;#160;protected]&lt;/a&gt;&lt;script cf-hash='f9e31' type=&quot;text/javascript&quot;&gt;\n/* &lt;![CDATA[ */!function(){try{var t=&quot;currentScript&quot;in document?document.currentScript:function(){for(var t=document.getElementsByTagName(&quot;script&quot;),e=t.length;e--;)if(t[e].getAttribute(&quot;cf-hash&quot;))return t[e]}();if(t&amp;&amp;t.previousSibling){var e,r,n,i,c=t.previousSibling,a=c.getAttribute(&quot;data-cfemail&quot;);if(a){for(e=&quot;&quot;,r=parseInt(a.substr(0,2),16),n=2;a.length-n;n+=2)i=parseInt(a.substr(n,2),16)^r,e+=String.fromCharCode(i);e=document.createTextNode(e),c.parentNode.replaceChild(e,c)}}}catch(u){}}();/* ]]&gt; */&lt;/script&gt;\nFormat settings, CABAC         : No\nFormat settings, ReFrames      : 3 frames\nCodec ID                       : avc1\nCodec ID/Info                  : Advanced Video Coding\nDuration                       : 1h 34mn\nSource duration                : 1h 34mn\nBit rate mode                  : Variable\nBit rate                       : 727 Kbps\nWidth                          : 854 pixels\nHeight                         : 358 pixels\nDisplay aspect ratio           : 2.40:1\nFrame rate mode                : Variable\nFrame rate                     : 24.000 fps\nMinimum frame rate             : 24.000 fps\nMaximum frame rate             : 24.024 fps\nColor space                    : YUV\nChroma subsampling             : 4:2:0\nBit depth                      : 8 bits\nScan type                      : Progressive\nBits/(Pixel*Frame)             : 0.099\nStream size                    : 491 MiB (88%)\nSource stream size             : 491 MiB (88%)\nLanguage                       : English\nEncoded date                   : UTC 2013-08-24 01:19:30\nTagged date                    : UTC 2013-08-24 01:19:30\nmdhd_Duration                  : 5662584\n\nAudio\nID                             : 2\nFormat                         : AAC\nFormat/Info                    : Advanced Audio Codec\nFormat profile                 : LC\nCodec ID                       : 40\nDuration                       : 1h 34mn\nSource duration                : 1h 34mn\nBit rate mode                  : Variable\nBit rate                       : 93.6 Kbps\nMaximum bit rate               : 228 Kbps\nChannel(s)                     : 2 channels\nChannel positions              : Front: L R\nSampling rate                  : 44.1 KHz\nCompression mode               : Lossy\nStream size                    : 63.2 MiB (11%)\nSource stream size             : 63.2 MiB (11%)\nLanguage                       : English\nEncoded date                   : UTC 2013-08-24 01:19:30\nTagged date                    : UTC 2013-08-24 01:19:30\nmdhd_Duration                  : 5662604\n\n","torrent":{"xt":"urn:btih:bbed86f98ff1ff9b1ec0571f3b770c16e341afa6","amp;dn":"Empire+state+2013","amp;tr":["udp%3A%2F%2Ftracker.openbittorrent.com%3A80","udp%3A%2F%2Fopen.demonii.com%3A1337","udp%3A%2F%2Ftracker.coppersurfer.tk%3A6969","udp%3A%2F%2Fexodus.desync.com%3A6969"],"infoHash":"bbed86f98ff1ff9b1ec0571f3b770c16e341afa6","infoHashBuffer":{"type":"Buffer","data":[187,237,134,249,143,241,255,155,30,192,87,31,59,119,12,22,227,65,175,166]},"announce":[],"urlList":[]}}